<svg xmlns="http://www.w3.org/2000/svg" width="44" height="40" fill="none"><g fill="#ECD979" clip-path="url(#a)"><path d="M43.94 39.456h-1.372v-1.39h1.373v1.39Z"/><path d="M42.569 39.456h-1.373v-1.39h1.373v1.39ZM37.08 39.456h-1.373v-1.39h1.372v1.39ZM35.707 39.456h-1.372v-1.39h1.372v1.39ZM34.335 39.456h-1.372v-1.39h1.372v1.39ZM26.1 39.456h-1.372v-1.39h1.373v1.39ZM17.867 39.456h-1.372v-1.39h1.372v1.39ZM9.633 39.456H8.261v-1.39h1.372v1.39ZM8.261 39.456H6.889v-1.39H8.26v1.39ZM6.889 39.456H5.517v-1.39h1.372v1.39ZM1.4 39.456H.027v-1.39H1.4v1.39ZM43.94 38.065h-1.372v-1.391h1.373v1.391ZM38.451 38.065H37.08v-1.391h1.372v1.391ZM37.08 38.065h-1.373v-1.391h1.372v1.391ZM35.707 38.065h-1.372v-1.391h1.372v1.391ZM26.1 38.065h-1.372v-1.391h1.373v1.391Z"/><path d="M24.729 38.065h-1.373v-1.391h1.373v1.391ZM19.24 38.065h-1.373v-1.391h1.372v1.391Z"/><path d="M17.867 38.065h-1.372v-1.391h1.372v1.391ZM8.261 38.065H6.889v-1.391H8.26v1.391ZM6.889 38.065H5.517v-1.391h1.372v1.391ZM5.517 38.065H4.145v-1.391h1.372v1.391ZM39.825 36.674h-1.373v-1.391h1.373v1.39ZM38.451 36.674H37.08v-1.391h1.372v1.39ZM37.08 36.674h-1.373v-1.391h1.372v1.39ZM26.1 36.674h-1.372v-1.391h1.373v1.39Z"/><path d="M24.729 36.674h-1.373v-1.391h1.373v1.39Z"/><path d="M23.356 36.674h-1.373v-1.391h1.373v1.39ZM20.612 36.674h-1.373v-1.391h1.373v1.39Z"/><path d="M19.24 36.674h-1.373v-1.391h1.372v1.39Z"/><path d="M17.867 36.674h-1.372v-1.391h1.372v1.39ZM6.889 36.674H5.517v-1.391h1.372v1.39ZM5.517 36.674H4.145v-1.391h1.372v1.39ZM4.144 36.674H2.77v-1.391h1.373v1.39ZM41.197 35.283h-1.373V33.89h1.373v1.392Z"/><path d="M39.825 35.283h-1.373V33.89h1.373v1.392ZM38.451 35.283H37.08V33.89h1.372v1.392ZM31.59 35.283h-1.372V33.89h1.372v1.392ZM30.218 35.283h-1.372V33.89h1.372v1.392ZM28.846 35.283h-1.372V33.89h1.372v1.392ZM24.729 35.283h-1.373V33.89h1.373v1.392Z"/><path d="M23.356 35.283h-1.373V33.89h1.373v1.392ZM20.612 35.283h-1.373V33.89h1.373v1.392Z"/><path d="M19.24 35.283h-1.373V33.89h1.372v1.392ZM15.122 35.283H13.75V33.89h1.372v1.392ZM13.75 35.283h-1.372V33.89h1.372v1.392ZM12.378 35.283h-1.372V33.89h1.372v1.392ZM5.517 35.283H4.145V33.89h1.372v1.392ZM4.144 35.283H2.77V33.89h1.373v1.392Z"/><path d="M2.772 35.283H1.399V33.89h1.373v1.392ZM42.569 33.891h-1.373V32.5h1.373v1.391Z"/><path d="M41.197 33.891h-1.373V32.5h1.373v1.391Z"/><path d="M39.825 33.891h-1.373V32.5h1.373v1.391ZM30.218 33.891h-1.372V32.5h1.372v1.391ZM28.846 33.891h-1.372V32.5h1.372v1.391ZM27.473 33.891H26.1V32.5h1.372v1.391ZM23.356 33.891h-1.373V32.5h1.373v1.391ZM20.612 33.891h-1.373V32.5h1.373v1.391ZM16.495 33.891h-1.372V32.5h1.372v1.391ZM15.122 33.891H13.75V32.5h1.372v1.391ZM13.75 33.891h-1.372V32.5h1.372v1.391ZM4.144 33.891H2.77V32.5h1.373v1.391Z"/><path d="M2.772 33.891H1.399V32.5h1.373v1.391Z"/><path d="M1.4 33.891H.027V32.5H1.4v1.391ZM42.569 32.5h-1.373v-1.391h1.373V32.5Z"/><path d="M41.197 32.5h-1.373v-1.391h1.373V32.5ZM28.846 32.5h-1.372v-1.391h1.372V32.5ZM27.473 32.5H26.1v-1.391h1.372V32.5Z"/><path d="M26.1 32.5h-1.372v-1.391h1.373V32.5ZM17.867 32.5h-1.372v-1.391h1.372V32.5ZM16.495 32.5h-1.372v-1.391h1.372V32.5ZM15.122 32.5H13.75v-1.391h1.372V32.5ZM2.772 32.5H1.399v-1.391h1.373V32.5Z"/><path d="M1.4 32.5H.027v-1.391H1.4V32.5ZM42.569 31.109h-1.373v-1.392h1.373v1.392ZM35.707 31.109h-1.372v-1.392h1.372v1.392ZM23.356 31.109h-1.373v-1.392h1.373v1.392ZM20.612 31.109h-1.373v-1.392h1.373v1.392ZM8.261 31.109H6.889v-1.392H8.26v1.392ZM1.4 31.109H.027v-1.392H1.4v1.392ZM35.707 29.717h-1.372v-1.39h1.372v1.39ZM34.335 29.717h-1.372v-1.39h1.372v1.39ZM24.729 29.717h-1.373v-1.39h1.373v1.39Z"/><path d="M23.356 29.717h-1.373v-1.39h1.373v1.39ZM20.612 29.717h-1.373v-1.39h1.373v1.39Z"/><path d="M19.24 29.717h-1.373v-1.39h1.372v1.39ZM9.633 29.717H8.261v-1.39h1.372v1.39ZM8.261 29.717H6.889v-1.39H8.26v1.39ZM35.707 28.326h-1.372v-1.391h1.372v1.391ZM34.335 28.326h-1.372v-1.391h1.372v1.391ZM32.962 28.326H31.59v-1.391h1.372v1.391ZM26.1 28.326h-1.372v-1.391h1.373v1.391Z"/><path d="M24.729 28.326h-1.373v-1.391h1.373v1.391ZM19.24 28.326h-1.373v-1.391h1.372v1.391Z"/><path d="M17.867 28.326h-1.372v-1.391h1.372v1.391ZM11.006 28.326H9.634v-1.391h1.372v1.391ZM9.633 28.326H8.261v-1.391h1.372v1.391ZM8.261 28.326H6.889v-1.391H8.26v1.391ZM34.335 26.935h-1.372v-1.391h1.372v1.39ZM32.962 26.935H31.59v-1.391h1.372v1.39ZM27.473 26.935H26.1v-1.391h1.372v1.39Z"/><path d="M26.1 26.935h-1.372v-1.391h1.373v1.39ZM17.867 26.935h-1.372v-1.391h1.372v1.39ZM16.495 26.935h-1.372v-1.391h1.372v1.39ZM11.006 26.935H9.634v-1.391h1.372v1.39ZM9.633 26.935H8.261v-1.391h1.372v1.39ZM39.825 25.544h-1.373v-1.392h1.373v1.392ZM38.451 25.544H37.08v-1.392h1.372v1.392ZM37.08 25.544h-1.373v-1.392h1.372v1.392ZM32.962 25.544H31.59v-1.392h1.372v1.392ZM28.846 25.544h-1.372v-1.392h1.372v1.392Z"/><path d="M27.473 25.544H26.1v-1.392h1.372v1.392ZM16.495 25.544h-1.372v-1.392h1.372v1.392ZM15.122 25.544H13.75v-1.392h1.372v1.392ZM11.006 25.544H9.634v-1.392h1.372v1.392ZM6.889 25.544H5.517v-1.392h1.372v1.392ZM5.517 25.544H4.145v-1.392h1.372v1.392ZM4.144 25.544H2.77v-1.392h1.373v1.392ZM43.94 24.152h-1.372v-1.391h1.373v1.391ZM38.451 24.152H37.08v-1.391h1.372v1.391ZM37.08 24.152h-1.373v-1.391h1.372v1.391ZM35.707 24.152h-1.372v-1.391h1.372v1.391ZM30.218 24.152h-1.372v-1.391h1.372v1.391ZM28.846 24.152h-1.372v-1.391h1.372v1.391ZM15.122 24.152H13.75v-1.391h1.372v1.391ZM13.75 24.152h-1.372v-1.391h1.372v1.391ZM8.261 24.152H6.889v-1.391H8.26v1.391ZM6.889 24.152H5.517v-1.391h1.372v1.391ZM5.517 24.152H4.145v-1.391h1.372v1.391ZM43.94 22.76h-1.372v-1.39h1.373v1.39Z"/><path d="M42.569 22.76h-1.373v-1.39h1.373v1.39ZM37.08 22.76h-1.373v-1.39h1.372v1.39ZM35.707 22.76h-1.372v-1.39h1.372v1.39ZM34.335 22.76h-1.372v-1.39h1.372v1.39ZM31.59 22.76h-1.372v-1.39h1.372v1.39ZM30.218 22.76h-1.372v-1.39h1.372v1.39ZM21.985 22.76h-1.373v-1.39h1.373v1.39ZM13.75 22.76h-1.372v-1.39h1.372v1.39ZM12.378 22.76h-1.372v-1.39h1.372v1.39ZM9.633 22.76H8.261v-1.39h1.372v1.39ZM8.261 22.76H6.889v-1.39H8.26v1.39ZM6.889 22.76H5.517v-1.39h1.372v1.39ZM1.372 21.37H0v-1.392h1.372v1.392ZM2.772 21.37H1.399v-1.392h1.373v1.392ZM1.372 22.76H0v-1.39h1.372v1.39ZM1.372 19.978H0v-1.391h1.372v1.391ZM43.94 21.37h-1.372v-1.392h1.373v1.392Z"/><path d="M42.569 21.37h-1.373v-1.392h1.373v1.392Z"/><path d="M41.197 21.37h-1.373v-1.392h1.373v1.392ZM23.356 21.37h-1.373v-1.392h1.373v1.392Z"/><path d="M21.985 21.37h-1.373v-1.392h1.373v1.392ZM20.612 21.37h-1.373v-1.392h1.373v1.392ZM43.94 19.978h-1.372v-1.391h1.373v1.391Z"/><path d="M42.569 19.978h-1.373v-1.391h1.373v1.391ZM37.08 19.978h-1.373v-1.391h1.372v1.391ZM35.707 19.978h-1.372v-1.391h1.372v1.391ZM34.335 19.978h-1.372v-1.391h1.372v1.391ZM31.59 19.978h-1.372v-1.391h1.372v1.391ZM30.218 19.978h-1.372v-1.391h1.372v1.391ZM21.985 19.978h-1.373v-1.391h1.373v1.391ZM13.75 19.978h-1.372v-1.391h1.372v1.391ZM12.378 19.978h-1.372v-1.391h1.372v1.391ZM9.633 19.978H8.261v-1.391h1.372v1.391ZM8.261 19.978H6.889v-1.391H8.26v1.391ZM6.889 19.978H5.517v-1.391h1.372v1.391ZM43.94 18.587h-1.372v-1.391h1.373v1.39ZM38.451 18.587H37.08v-1.391h1.372v1.39ZM37.08 18.587h-1.373v-1.391h1.372v1.39ZM35.707 18.587h-1.372v-1.391h1.372v1.39ZM30.218 18.587h-1.372v-1.391h1.372v1.39ZM28.846 18.587h-1.372v-1.391h1.372v1.39ZM15.122 18.587H13.75v-1.391h1.372v1.39ZM13.75 18.587h-1.372v-1.391h1.372v1.39ZM8.261 18.587H6.889v-1.391H8.26v1.39ZM6.889 18.587H5.517v-1.391h1.372v1.39ZM5.517 18.587H4.145v-1.391h1.372v1.39ZM39.825 17.196h-1.373v-1.392h1.373v1.392Z"/><path d="M38.451 17.196H37.08v-1.392h1.372v1.392ZM37.08 17.196h-1.373v-1.392h1.372v1.392ZM32.962 17.196H31.59v-1.392h1.372v1.392ZM28.846 17.196h-1.372v-1.392h1.372v1.392ZM27.473 17.196H26.1v-1.392h1.372v1.392ZM16.495 17.196h-1.372v-1.392h1.372v1.392ZM15.122 17.196H13.75v-1.392h1.372v1.392ZM11.006 17.196H9.634v-1.392h1.372v1.392ZM6.889 17.196H5.517v-1.392h1.372v1.392ZM5.517 17.196H4.145v-1.392h1.372v1.392ZM4.144 17.196H2.77v-1.392h1.373v1.392ZM34.335 15.804h-1.372v-1.391h1.372v1.391ZM32.962 15.804H31.59v-1.391h1.372v1.391ZM27.473 15.804H26.1v-1.391h1.372v1.391Z"/><path d="M26.1 15.804h-1.372v-1.391h1.373v1.391ZM17.867 15.804h-1.372v-1.391h1.372v1.391ZM16.495 15.804h-1.372v-1.391h1.372v1.391ZM11.006 15.804H9.634v-1.391h1.372v1.391ZM9.633 15.804H8.261v-1.391h1.372v1.391ZM35.707 14.413h-1.372v-1.391h1.372v1.391ZM34.335 14.413h-1.372v-1.391h1.372v1.391ZM32.962 14.413H31.59v-1.391h1.372v1.391ZM26.1 14.413h-1.372v-1.391h1.373v1.391Z"/><path d="M24.729 14.413h-1.373v-1.391h1.373v1.391ZM19.24 14.413h-1.373v-1.391h1.372v1.391Z"/><path d="M17.867 14.413h-1.372v-1.391h1.372v1.391ZM11.006 14.413H9.634v-1.391h1.372v1.391ZM9.633 14.413H8.261v-1.391h1.372v1.391ZM8.261 14.413H6.889v-1.391H8.26v1.391ZM35.707 13.022h-1.372V11.63h1.372v1.392ZM34.335 13.022h-1.372V11.63h1.372v1.392ZM24.729 13.022h-1.373V11.63h1.373v1.392Z"/><path d="M23.356 13.022h-1.373V11.63h1.373v1.392ZM20.612 13.022h-1.373V11.63h1.373v1.392Z"/><path d="M19.24 13.022h-1.373V11.63h1.372v1.392ZM9.633 13.022H8.261V11.63h1.372v1.392ZM8.261 13.022H6.889V11.63H8.26v1.392ZM35.707 11.63h-1.372v-1.39h1.372v1.39ZM23.356 11.63h-1.373v-1.39h1.373v1.39ZM20.612 11.63h-1.373v-1.39h1.373v1.39ZM8.261 11.63H6.889v-1.39H8.26v1.39ZM42.569 10.24h-1.373V8.847h1.373v1.391ZM1.4 10.24H.027V8.847H1.4v1.391Z"/><path d="M42.569 8.848h-1.373V7.456h1.373v1.392Z"/><path d="M41.197 8.848h-1.373V7.456h1.373v1.392ZM28.846 8.848h-1.372V7.456h1.372v1.392ZM27.473 8.848H26.1V7.456h1.372v1.392Z"/><path d="M26.1 8.848h-1.372V7.456h1.373v1.392ZM17.867 8.848h-1.372V7.456h1.372v1.392ZM16.495 8.848h-1.372V7.456h1.372v1.392ZM15.122 8.848H13.75V7.456h1.372v1.392ZM2.772 8.848H1.399V7.456h1.373v1.392Z"/><path d="M1.4 8.848H.027V7.456H1.4v1.392ZM42.569 7.457h-1.373V6.065h1.373v1.392Z"/><path d="M41.197 7.457h-1.373V6.065h1.373v1.392Z"/><path d="M39.825 7.457h-1.373V6.065h1.373v1.392ZM30.218 7.457h-1.372V6.065h1.372v1.392ZM28.846 7.457h-1.372V6.065h1.372v1.392ZM27.473 7.457H26.1V6.065h1.372v1.392ZM23.356 7.457h-1.373V6.065h1.373v1.392ZM20.612 7.457h-1.373V6.065h1.373v1.392ZM16.495 7.457h-1.372V6.065h1.372v1.392ZM15.122 7.457H13.75V6.065h1.372v1.392ZM13.75 7.457h-1.372V6.065h1.372v1.392ZM4.144 7.457H2.77V6.065h1.373v1.392Z"/><path d="M2.772 7.457H1.399V6.065h1.373v1.392Z"/><path d="M1.4 7.457H.027V6.065H1.4v1.392ZM41.197 6.065h-1.373V4.674h1.373v1.391Z"/><path d="M39.825 6.065h-1.373V4.674h1.373v1.391ZM38.451 6.065H37.08V4.674h1.372v1.391ZM31.59 6.065h-1.372V4.674h1.372v1.391ZM30.218 6.065h-1.372V4.674h1.372v1.391ZM28.846 6.065h-1.372V4.674h1.372v1.391ZM24.729 6.065h-1.373V4.674h1.373v1.391Z"/><path d="M23.356 6.065h-1.373V4.674h1.373v1.391ZM20.612 6.065h-1.373V4.674h1.373v1.391Z"/><path d="M19.24 6.065h-1.373V4.674h1.372v1.391ZM15.122 6.065H13.75V4.674h1.372v1.391ZM13.75 6.065h-1.372V4.674h1.372v1.391ZM12.378 6.065h-1.372V4.674h1.372v1.391ZM5.517 6.065H4.145V4.674h1.372v1.391ZM4.144 6.065H2.77V4.674h1.373v1.391Z"/><path d="M2.772 6.065H1.399V4.674h1.373v1.391ZM39.825 4.674h-1.373V3.283h1.373v1.39ZM38.451 4.674H37.08V3.283h1.372v1.39ZM37.08 4.674h-1.373V3.283h1.372v1.39ZM26.1 4.674h-1.372V3.283h1.373v1.39Z"/><path d="M24.729 4.674h-1.373V3.283h1.373v1.39Z"/><path d="M23.356 4.674h-1.373V3.283h1.373v1.39ZM20.612 4.674h-1.373V3.283h1.373v1.39Z"/><path d="M19.24 4.674h-1.373V3.283h1.372v1.39Z"/><path d="M17.867 4.674h-1.372V3.283h1.372v1.39ZM6.889 4.674H5.517V3.283h1.372v1.39ZM5.517 4.674H4.145V3.283h1.372v1.39ZM4.144 4.674H2.77V3.283h1.373v1.39ZM43.94 3.283h-1.372V1.89h1.373v1.392ZM38.451 3.283H37.08V1.89h1.372v1.392ZM37.08 3.283h-1.373V1.89h1.372v1.392ZM35.707 3.283h-1.372V1.89h1.372v1.392ZM26.1 3.283h-1.372V1.89h1.373v1.392Z"/><path d="M24.729 3.283h-1.373V1.89h1.373v1.392ZM19.24 3.283h-1.373V1.89h1.372v1.392Z"/><path d="M17.867 3.283h-1.372V1.89h1.372v1.392ZM8.261 3.283H6.889V1.89H8.26v1.392ZM6.889 3.283H5.517V1.89h1.372v1.392ZM5.517 3.283H4.145V1.89h1.372v1.392ZM43.94 1.891h-1.372V.5h1.373v1.391Z"/><path d="M42.569 1.891h-1.373V.5h1.373v1.391ZM37.08 1.891h-1.373V.5h1.372v1.391ZM35.707 1.891h-1.372V.5h1.372v1.391ZM34.335 1.891h-1.372V.5h1.372v1.391ZM26.1 1.891h-1.372V.5h1.373v1.391ZM17.867 1.891h-1.372V.5h1.372v1.391ZM9.633 1.891H8.261V.5h1.372v1.391ZM8.261 1.891H6.889V.5H8.26v1.391ZM6.889 1.891H5.517V.5h1.372v1.391ZM1.4 1.891H.027V.5H1.4v1.391Z"/></g><defs><clipPath id="a"><path fill="#fff" d="M0 .5h44v39H0z"/></clipPath></defs></svg>